<svg width="32" height="32" viewBox="0 0 44 44" fill="none" xmlns="http://www.w3.org/2000/svg">
  <rect width="44" height="44" rx="10" fill="#C8102E"/>
  <rect x="4" y="4" width="36" height="36" rx="6" stroke="rgba(255,255,255,0.3)" stroke-width="2" fill="none"/>
  <path d="M22 12C16.477 12 12 16.477 12 22C12 27.523 16.477 32 22 32C27.523 32 32 27.523 32 22C32 16.477 27.523 12 22 12ZM26.5 25.5C26.5 26.328 25.828 27 25 27H19C18.172 27 17.5 26.328 17.5 25.5V18.5C17.5 17.672 18.172 17 19 17H25C25.828 17 26.5 17.672 26.5 18.5V25.5Z" fill="white"/>
  <rect x="19" y="19" width="6" height="6" rx="1" fill="white"/>
</svg>
